/* XPM */
const char * ar_d0_xpm[] = {
"9 12 20 1",
" 	c None",
".	c #000000",
"+	c #FFFFFF",
"@	c #004499",
"#	c #014599",
"$	c #02459A",
"%	c #0C4D9E",
"&	c #0D4E9E",
"*	c #1352A1",
"=	c #2B64AA",
"-	c #2D65AB",
";	c #4E7DB8",
">	c #5784BC",
",	c #618BC0",
"'	c #6B92C4",
")	c #7197C6",
"!	c #769BC8",
"~	c #7B9ECA",
"{	c #80A2CC",
"]	c #7A9DCA",
"  @@@@@  ",
"  @*{]@  ",
"  @#'!@  ",
"  @@;]@  ",
"  @@=~@  ",
"  @@&)@  ",
"  @@@>@  ",
"@@$@@-@@@",
" @@@@%,@ ",
"  @@@@@  ",
"   @@@   ",
"    @    "};
