/* XPM */
const char * ar_u1_xpm[] = {
"9 12 20 1",
" 	c None",
".	c #000000",
"+	c #FFFFFF",
"@	c #009944",
"#	c #019945",
"$	c #029A45",
"%	c #0C9E4D",
"&	c #0D9E4E",
"*	c #13A152",
"=	c #2BAA64",
"-	c #2DAB65",
";	c #4EB87D",
">	c #57BC84",
",	c #61C08B",
"'	c #6BC492",
")	c #71C697",
"!	c #76C89B",
"~	c #7BCA9E",
"{	c #80CCA2",
"]	c #7ACA9D",
"    @    ",
"   @@@   ",
"  @@@@@  ",
" @,%@@@@ ",
"@@@-@@$@@",
"  @>@@@  ",
"  @)&@@  ",
"  @~=@@  ",
"  @];@@  ",
"  @!'#@  ",
"  @]{*@  ",
"  @@@@@  "};
